<svg id="Layer_1" data-name="Layer 1" xmlns="http://www.w3.org/2000/svg" viewBox="0 0 109.5 131"><defs><style>.cls-1,.cls-2{fill:#fff;}.cls-2{stroke:#2a2f32;stroke-miterlimit:10;stroke-width:8px;}.cls-3{fill:#2a2f32;}</style></defs><title>copyIcon</title><path class="cls-1" d="M108.5,55.17V135a6.5,6.5,0,0,1-6.5,6.5H29a6.5,6.5,0,0,1-6.5-6.5V38A6.5,6.5,0,0,1,29,31.5H81.33" transform="translate(-22.5 -10.5)"/><path class="cls-2" d="M123.5,40.17V120a6.5,6.5,0,0,1-6.5,6.5H44a6.5,6.5,0,0,1-6.5-6.5V23A6.5,6.5,0,0,1,44,16.5H96.33" transform="translate(-22.5 -10.5)"/><path class="cls-3" d="M115.8,48.82l-21.43.52a6.76,6.76,0,0,1-6.9-6.61L87,24.85" transform="translate(-22.5 -10.5)"/><polygon class="cls-3" points="72.5 9 97.5 30 109.5 30 104.5 15 78.5 4 73.5 0 72.5 9"/></svg>