<?xml version="1.0" encoding="utf-8"?>
<!-- Generator: Adobe Illustrator 22.0.1, SVG Export Plug-In . SVG Version: 6.00 Build 0)  -->
<svg version="1.1" id="Capa_1" xmlns="http://www.w3.org/2000/svg" xmlns:xlink="http://www.w3.org/1999/xlink" x="0px" y="0px"
	 viewBox="0 0 34.4 34.4" style="enable-background:new 0 0 34.4 34.4;" xml:space="preserve">
<style type="text/css">
	.st0{fill:#FFFFFF;}
</style>
<g>
	<path class="st0" d="M26.4,4.1h-3.6c0,0,0-0.1,0-0.1c0-2.2-1.8-3.9-3.9-3.9h-4.1c-2.2,0-3.9,1.8-3.9,3.9c0,0,0,0.1,0,0.1H8
		c-1.7,0-3,1.3-3,3v1.2h24.3V7.1C29.4,5.4,28,4.1,26.4,4.1z M12.8,3.9c0-1.1,0.9-1.9,1.9-1.9h4.1c1.1,0,1.9,0.9,1.9,1.9
		c0,0,0,0.1,0,0.1h-8C12.8,4,12.8,4,12.8,3.9z M5,31.4c0,1.7,1.3,3,3,3h18.3c1.7,0,3-1.3,3-3V10.2H5V31.4z M24.2,13.7
		c0-0.6,0.4-1,1-1c0.6,0,1,0.4,1,1v17.4c0,0.6-0.4,1-1,1c-0.6,0-1-0.4-1-1V13.7z M18.9,13.7c0-0.6,0.4-1,1-1c0.6,0,1,0.4,1,1v17.4
		c0,0.6-0.4,1-1,1c-0.6,0-1-0.4-1-1V13.7z M13.5,13.7c0-0.6,0.4-1,1-1s1,0.4,1,1v17.4c0,0.6-0.4,1-1,1s-1-0.4-1-1V13.7z M8.2,13.7
		c0-0.6,0.4-1,1-1s1,0.4,1,1v17.4c0,0.6-0.4,1-1,1s-1-0.4-1-1V13.7z"/>
</g>
</svg>
