<?xml version="1.0" encoding="utf-8"?>
<!-- Generator: Adobe Illustrator 22.0.1, SVG Export Plug-In . SVG Version: 6.00 Build 0)  -->
<svg version="1.1" id="Layer_1" xmlns="http://www.w3.org/2000/svg" xmlns:xlink="http://www.w3.org/1999/xlink" x="0px" y="0px"
	 viewBox="0 0 162.5 170.8" style="enable-background:new 0 0 162.5 170.8;" xml:space="preserve">
<style type="text/css">
	.st0{fill:#FFFFFF;}
</style>
<g id="XMLID_456_">
	<path id="XMLID_876_" class="st0" d="M158.6,140.7c-9.1-18.1-9.8-37.7-9.8-37.7c-1.9-17.3-5.5-31.9-10-44.1
		C117.2,1,44.8,1,23.2,58.9c-4.6,12.2-8.1,26.7-10,44.1c0,0-0.8,19.6-9.8,37.7c-3,6.1,0.5,14.1,6.1,14.1H81h71.5
		C158.2,154.8,161.7,146.8,158.6,140.7z"/>
	<path id="XMLID_877_" class="st0" d="M99.3,154.4c0-8.3-8.2-15-18.3-15c-10.1,0-18.3,6.7-18.3,15c0,8.3,8.2,15,18.3,15
		C91.1,169.4,99.3,162.7,99.3,154.4z"/>
	<path id="XMLID_878_" class="st0" d="M81,2.1L81,2.1c-4.3,0-7.8,3.5-7.8,7.8v11.7c0,4.3,3.5,7.8,7.8,7.8c4.3,0,7.8-3.5,7.8-7.8V9.9
		C88.8,5.6,85.3,2.1,81,2.1z"/>
</g>
</svg>
